# xmcd
#
# Track frame offsets: 
#        150
#        19357
#        34775
#        54141
#        68468
#        85795
#        100167
#        120786
#        133858
#        155234
#        170291
#
# Disc length: 2465 seconds
#
# Revision: 1
# Processed by: cddbd v1.5.2PL0 Copyright (c) Steve Scherf et al.
# Submitted via: ExactAudioCopy v0.99pb4
#
DISCID=81099f0b
DTITLE=Renee Austin - Right About Love
DYEAR=2005
DGENRE=Blues
TTITLE0=Mouth Of The Delta
TTITLE1=Harder Than It Has To Be
TTITLE2=Right About Love
TTITLE3=U-Haul
TTITLE4=Thank You Card
TTITLE5=Meant To Be
TTITLE6=Strangers On A Train
TTITLE7=Bugs
TTITLE8=Chicken Coop
TTITLE9=That's All Right
TTITLE10=Mister Cowboy
EXTD=
EXTT0=
EXTT1=
EXTT2=
EXTT3=
EXTT4=
EXTT5=
EXTT6=
EXTT7=
EXTT8=
EXTT9=
EXTT10=
PLAYORDER=
